<svg width="24" height="20" viewBox="0 0 24 20" fill="none" xmlns="http://www.w3.org/2000/svg">
<path fill-rule="evenodd" clip-rule="evenodd" d="M1.59692 5.91139C3.56684 3.35214 6.96097 0.333496 12 0.333496C17.039 0.333496 20.4332 3.35214 22.4031 5.91139L22.4386 5.95751C22.8842 6.53612 23.2944 7.06902 23.5728 7.69915C23.871 8.37394 24 9.10935 24 10.1009C24 11.0925 23.871 11.8279 23.5728 12.5027C23.2944 13.1329 22.8842 13.6658 22.4386 14.2443L22.4031 14.2904C20.4332 16.8497 17.039 19.8684 12 19.8684C6.96097 19.8684 3.56684 16.8497 1.59692 14.2904L1.5614 14.2443C1.11588 13.6658 0.705555 13.1329 0.427189 12.5027C0.129086 11.8279 0 11.0925 0 10.1009C0 9.10935 0.129086 8.37394 0.427189 7.69915C0.705551 7.06904 1.11587 6.53615 1.56136 5.95756L1.56138 5.95753L1.59692 5.91139ZM12 2.00791C7.70273 2.00791 4.74267 4.56969 2.92378 6.93272C2.43419 7.56876 2.14743 7.94886 1.9588 8.37573C1.78252 8.7748 1.67442 9.2625 1.67442 10.1009C1.67442 10.9394 1.78252 11.4271 1.9588 11.8261C2.14743 12.253 2.4342 12.6331 2.92378 13.2692C4.74267 15.6322 7.70273 18.194 12 18.194C16.2972 18.194 19.2574 15.6322 21.0762 13.2692C21.5658 12.6331 21.8526 12.253 22.0412 11.8261C22.2175 11.4271 22.3256 10.9394 22.3256 10.1009C22.3256 9.2625 22.2175 8.7748 22.0412 8.37573C21.8526 7.94886 21.5658 7.56876 21.0762 6.93272C19.2574 4.56969 16.2972 2.00791 12 2.00791ZM7.81395 10.1009C7.81395 7.78904 9.6881 5.91489 12 5.91489C14.3119 5.91489 16.186 7.78904 16.186 10.1009C16.186 12.4129 14.3119 14.287 12 14.287C9.6881 14.287 7.81395 12.4129 7.81395 10.1009ZM12 7.58931C10.6129 7.58931 9.48836 8.71385 9.48836 10.1009C9.48836 11.488 10.6129 12.6126 12 12.6126C13.3871 12.6126 14.5116 11.488 14.5116 10.1009C14.5116 8.71385 13.3871 7.58931 12 7.58931Z" fill="#1C274C"/>
</svg>
