<svg width="50" height="50" viewBox="0 0 50 50" fill="none" xmlns="http://www.w3.org/2000/svg">
<path fill-rule="evenodd" clip-rule="evenodd" d="M15.1163 2.07768C15.1163 1.1144 14.3354 0.333496 13.3721 0.333496C12.4088 0.333496 11.6279 1.1144 11.6279 2.07768V4.00115C11.0234 4.04724 10.4509 4.10517 9.90926 4.17798C7.1827 4.54457 4.97584 5.31694 3.23544 7.05731C1.49507 8.79771 0.722699 11.0045 0.35614 13.7311C-6.88572e-05 16.3805 -4.54577e-05 19.7656 1.05396e-06 24.0395V28.953C-4.54577e-05 33.227 -6.88572e-05 36.6121 0.35614 39.2614C0.722699 41.9879 1.49507 44.1949 3.23544 45.9354C4.97584 47.6756 7.1827 48.4479 9.90926 48.8147C12.5585 49.1707 15.9438 49.1707 20.2175 49.1707H20.2177H29.7826H29.7827C34.0564 49.1707 37.4414 49.1707 40.0907 48.8147C42.8172 48.4479 45.0242 47.6756 46.7647 45.9354C48.5049 44.1949 49.2772 41.9879 49.644 39.2614C50 36.6121 50 33.2268 50 28.9532V28.953V24.0393V24.0392C50 19.7655 50 16.3804 49.644 13.7311C49.2772 11.0045 48.5049 8.79771 46.7647 7.05731C45.0242 5.31694 42.8172 4.54457 40.0907 4.17798C39.5491 4.10517 38.9765 4.04724 38.3721 4.00115V2.07768C38.3721 1.1144 37.5912 0.333496 36.6279 0.333496C35.6646 0.333496 34.8837 1.1144 34.8837 2.07768V3.85145C33.3442 3.82185 31.6479 3.82185 29.7823 3.82187H20.2174C18.3519 3.82185 16.6558 3.82185 15.1163 3.85145V2.07768ZM5.70209 9.52396C6.6863 8.53975 8.03433 7.94982 10.3741 7.63526C12.764 7.31394 15.9144 7.31024 20.3488 7.31024H29.6512C34.0856 7.31024 37.236 7.31394 39.626 7.63526C41.9656 7.94982 43.3137 8.53975 44.2979 9.52396C45.2821 10.5082 45.8721 11.8562 46.1865 14.1959C46.2398 14.5922 46.2844 15.0093 46.3216 15.4498H3.67833C3.71558 15.0093 3.76012 14.5922 3.8134 14.1959C4.12795 11.8562 4.71788 10.5082 5.70209 9.52396ZM3.51881 18.9381C3.48912 20.4561 3.48837 22.1847 3.48837 24.1707V28.8219C3.48837 33.2563 3.49207 36.4068 3.8134 38.7968C4.12795 41.1363 4.71788 42.4844 5.70209 43.4686C6.6863 44.4528 8.03433 45.0428 10.3741 45.3572C12.764 45.6786 15.9144 45.6823 20.3488 45.6823H29.6512C34.0856 45.6823 37.236 45.6786 39.626 45.3572C41.9656 45.0428 43.3137 44.4528 44.2979 43.4686C45.2821 42.4844 45.8721 41.1363 46.1865 38.7968C46.5079 36.4068 46.5116 33.2563 46.5116 28.8219V24.1707C46.5116 22.1847 46.5109 20.4561 46.4812 18.9381H3.51881ZM15.6977 26.4963C15.6977 27.7807 14.6565 28.8219 13.3721 28.8219C12.0877 28.8219 11.0465 27.7807 11.0465 26.4963C11.0465 25.2119 12.0877 24.1707 13.3721 24.1707C14.6565 24.1707 15.6977 25.2119 15.6977 26.4963ZM25 28.8219C26.2844 28.8219 27.3256 27.7807 27.3256 26.4963C27.3256 25.2119 26.2844 24.1707 25 24.1707C23.7156 24.1707 22.6744 25.2119 22.6744 26.4963C22.6744 27.7807 23.7156 28.8219 25 28.8219ZM36.6279 28.8219C37.9123 28.8219 38.9535 27.7807 38.9535 26.4963C38.9535 25.2119 37.9123 24.1707 36.6279 24.1707C35.3435 24.1707 34.3023 25.2119 34.3023 26.4963C34.3023 27.7807 35.3435 28.8219 36.6279 28.8219ZM36.6279 38.1242C37.9123 38.1242 38.9535 37.083 38.9535 35.7986C38.9535 34.5142 37.9123 33.473 36.6279 33.473C35.3435 33.473 34.3023 34.5142 34.3023 35.7986C34.3023 37.083 35.3435 38.1242 36.6279 38.1242ZM27.3256 35.7986C27.3256 37.083 26.2844 38.1242 25 38.1242C23.7156 38.1242 22.6744 37.083 22.6744 35.7986C22.6744 34.5142 23.7156 33.473 25 33.473C26.2844 33.473 27.3256 34.5142 27.3256 35.7986ZM13.3721 38.1242C14.6565 38.1242 15.6977 37.083 15.6977 35.7986C15.6977 34.5142 14.6565 33.473 13.3721 33.473C12.0877 33.473 11.0465 34.5142 11.0465 35.7986C11.0465 37.083 12.0877 38.1242 13.3721 38.1242Z" fill="#1C274C"/>
</svg>
