<svg width="50" height="46" viewBox="0 0 50 46" fill="none" xmlns="http://www.w3.org/2000/svg">
<path fill-rule="evenodd" clip-rule="evenodd" d="M14.7638 5.53503C15.3843 2.4888 18.0951 0.333496 21.2007 0.333496H28.7993C31.9049 0.333496 34.6156 2.4888 35.2363 5.53503C35.3795 6.23824 36.0165 6.7541 36.6791 6.7541H36.7172L36.7553 6.75575C40.0191 6.89847 42.526 7.29901 44.6191 8.67205C45.9377 9.53715 47.0719 10.6502 47.9558 11.9489C49.0556 13.5648 49.5405 15.4194 49.773 17.6625C50 19.854 50 22.6009 50 26.0802V26.2781C50 29.7575 50 32.5044 49.773 34.6958C49.5405 36.9388 49.0556 38.7935 47.9558 40.4093C47.0719 41.7081 45.9377 42.8212 44.6191 43.6863C42.983 44.7595 41.1074 45.2328 38.8326 45.46C36.6053 45.6823 33.8116 45.6823 30.2637 45.6823H19.7362C16.1883 45.6823 13.3946 45.6823 11.1673 45.46C8.89253 45.2328 7.017 44.7595 5.38105 43.6863C4.06237 42.8212 2.92802 41.7081 2.04416 40.4093C0.944465 38.7935 0.459442 36.9388 0.227024 34.6958C-4.60203e-05 32.5044 -2.27851e-05 29.7575 4.70672e-07 26.2781V26.0802C-2.27851e-05 22.6009 -4.60203e-05 19.854 0.227024 17.6625C0.459442 15.4194 0.944465 13.5648 2.04416 11.9489C2.92802 10.6502 4.06237 9.53715 5.38105 8.67205C7.47402 7.29901 9.98093 6.89847 13.2447 6.75575L13.2828 6.7541H13.3209C13.9834 6.7541 14.6205 6.23826 14.7638 5.53503ZM21.2007 3.82187C19.7098 3.82187 18.4629 4.85208 18.182 6.23133C17.7269 8.4651 15.7465 10.2215 13.3636 10.2423C10.2273 10.3816 8.54735 10.7669 7.29451 11.5888C6.35602 12.2045 5.55237 12.9942 4.92805 13.9116C4.28584 14.8552 3.89991 16.062 3.69681 18.022C3.49056 20.0128 3.48837 22.5791 3.48837 26.1791C3.48837 29.7793 3.49056 32.3456 3.69681 34.3363C3.89991 36.2963 4.28584 37.503 4.92805 38.4468C5.55237 39.3642 6.35602 40.154 7.29451 40.7695C8.26551 41.4065 9.508 41.7884 11.514 41.9888C13.5477 42.1919 16.1673 42.194 19.832 42.194H30.1679C33.8328 42.194 36.4523 42.1919 38.486 41.9888C40.4921 41.7884 41.7344 41.4065 42.7056 40.7695C43.644 40.154 44.4477 39.3642 45.0719 38.4468C45.7142 37.503 46.1 36.2963 46.3033 34.3363C46.5095 32.3456 46.5116 29.7793 46.5116 26.1791C46.5116 22.5791 46.5095 20.0128 46.3033 18.022C46.1 16.062 45.7142 14.8552 45.0719 13.9116C44.4477 12.9942 43.644 12.2045 42.7056 11.5888C41.4526 10.7669 39.7728 10.3816 36.6365 10.2423C34.2535 10.2215 32.273 8.4651 31.8181 6.23133C31.537 4.85208 30.2902 3.82187 28.7993 3.82187H21.2007ZM25 20.1009C22.1102 20.1009 19.7674 22.4437 19.7674 25.3335C19.7674 28.2233 22.1102 30.5661 25 30.5661C27.8898 30.5661 30.2326 28.2233 30.2326 25.3335C30.2326 22.4437 27.8898 20.1009 25 20.1009ZM16.2791 25.3335C16.2791 20.517 20.1836 16.6126 25 16.6126C29.8165 16.6126 33.7209 20.517 33.7209 25.3335C33.7209 30.15 29.8165 34.0544 25 34.0544C20.1836 34.0544 16.2791 30.15 16.2791 25.3335ZM37.2093 18.3568C37.2093 17.3935 37.9902 16.6126 38.9535 16.6126H41.2791C42.2423 16.6126 43.0233 17.3935 43.0233 18.3568C43.0233 19.32 42.2423 20.1009 41.2791 20.1009H38.9535C37.9902 20.1009 37.2093 19.32 37.2093 18.3568Z" fill="#1C274C"/>
</svg>
