<svg width="50" height="51" viewBox="0 0 50 51" fill="none" xmlns="http://www.w3.org/2000/svg">
<path fill-rule="evenodd" clip-rule="evenodd" d="M24.8665 0.333496H25.1335L25.1337 0.333496C30.502 0.333473 34.7089 0.333455 37.9914 0.774775C41.3512 1.2265 44.0026 2.16915 46.0835 4.2501C48.1644 6.33105 49.107 8.98226 49.5588 12.3421C50 15.6246 50 19.8317 50 25.2V25.467C50 30.8354 50 35.0423 49.5588 38.3249C49.107 41.6847 48.1644 44.3361 46.0835 46.417C44.0026 48.4979 41.3512 49.4405 37.9914 49.8923C34.7088 50.3335 30.5019 50.3335 25.1335 50.3335H24.8665C19.4982 50.3335 15.2911 50.3335 12.0086 49.8923C8.64877 49.4405 5.99756 48.4979 3.9166 46.417C1.83565 44.3361 0.893 41.6847 0.441279 38.3249C-4.11431e-05 35.0424 -2.29187e-05 30.8355 3.36835e-07 25.4672L3.37644e-07 25.467V25.2L3.3683e-07 25.1998C-2.29187e-05 19.8316 -4.11356e-05 15.6246 0.441279 12.3421C0.893 8.98226 1.83565 6.33105 3.9166 4.2501C5.99756 2.16915 8.64877 1.2265 12.0086 0.774775C15.2911 0.333455 19.4981 0.333473 24.8663 0.333496L24.8665 0.333496ZM12.4734 4.23203C9.5004 4.63175 7.70802 5.39196 6.38326 6.71675C5.05847 8.04152 4.29826 9.83389 3.89853 12.8069C3.49207 15.8301 3.48837 19.8027 3.48837 25.3335C3.48837 30.8642 3.49207 34.8368 3.89853 37.86C4.29826 40.833 5.05847 42.6254 6.38326 43.9502C7.70802 45.2751 9.5004 46.0354 12.4734 46.4349C15.4967 46.8414 19.4692 46.8451 25 46.8451C30.5307 46.8451 34.5033 46.8414 37.5265 46.4349C40.4995 46.0354 42.2919 45.2751 43.6167 43.9502C44.9416 42.6254 45.7019 40.833 46.1014 37.86C46.5079 34.8368 46.5116 30.8642 46.5116 25.3335C46.5116 19.8027 46.5079 15.8301 46.1014 12.8069C45.7019 9.83389 44.9416 8.04152 43.6167 6.71675C42.2919 5.39196 40.4995 4.63175 37.5265 4.23203C34.5033 3.82557 30.5307 3.82187 25 3.82187C19.4692 3.82187 15.4967 3.82557 12.4734 4.23203ZM17.9527 18.2862C18.6338 17.6051 19.7382 17.6051 20.4193 18.2862L25 22.867L29.5805 18.2863C30.2616 17.6051 31.366 17.6051 32.0472 18.2863C32.7284 18.9674 32.7284 20.0718 32.0472 20.7528L27.4665 25.3335L32.0472 29.9142C32.7284 30.5951 32.7284 31.6995 32.0472 32.3807C31.366 33.0619 30.2616 33.0619 29.5805 32.3807L25 27.8002L20.4193 32.3807C19.7382 33.0619 18.6338 33.0619 17.9527 32.3807C17.2716 31.6995 17.2716 30.5953 17.9527 29.9142L22.5333 25.3335L17.9527 20.7528C17.2715 20.0717 17.2715 18.9673 17.9527 18.2862Z" fill="#1C274C"/>
</svg>
