<svg width="50" height="50" viewBox="0 0 50 50" fill="none" xmlns="http://www.w3.org/2000/svg">
<path fill-rule="evenodd" clip-rule="evenodd" d="M20.2338 1.26102C21.857 0.471674 23.3533 0 25 0C26.6467 0 28.143 0.471674 29.766 1.26102C31.3351 2.02405 33.1479 3.14905 35.4119 4.55421L40.2179 7.537L40.2215 7.53925C42.3622 8.86776 44.0765 9.93173 45.3979 10.9437C46.7672 11.9923 47.8188 13.0602 48.5784 14.448C49.3363 15.8328 49.6777 17.3064 49.8414 19.0481C50 20.736 50 22.8002 50 25.3888V29.1393C50 33.567 50 37.0619 49.6449 39.7944C49.2805 42.5977 48.5149 44.8607 46.7851 46.6498C45.0474 48.4474 42.836 49.2505 40.0986 49.6312C37.4453 50 34.0567 50 29.7863 50H20.2136C15.9432 50 12.5546 50 9.90142 49.6312C7.16386 49.2505 4.95251 48.4474 3.21479 46.6498C1.48502 44.8607 0.719465 42.5977 0.355117 39.7944C-4.10616e-05 37.0619 -2.27032e-05 33.5668 5.52174e-07 29.1395L5.53162e-07 29.1393V25.3888C-2.27026e-05 22.8002 -2.27503e-05 20.736 0.158582 19.0481C0.322256 17.3064 0.663605 15.8328 1.42165 14.448C2.18128 13.0602 3.23291 11.9923 4.60209 10.9437C5.92411 9.93129 7.6393 8.86681 9.78121 7.53749L9.78205 7.53698L14.588 4.55423C16.8521 3.14905 18.6648 2.02407 20.2338 1.26102ZM21.7593 4.39814C20.3709 5.07333 18.71 6.10165 16.3477 7.56772L11.6966 10.4543C9.46207 11.8411 7.89326 12.8171 6.72307 13.7133C5.58449 14.5852 4.92942 15.3048 4.4816 16.1229C4.03221 16.9439 3.76984 17.9038 3.63165 19.3745C3.49014 20.8805 3.48837 22.7809 3.48837 25.4742V29.0116C3.48837 33.5951 3.49184 36.8633 3.8144 39.3449C4.13121 41.7821 4.72793 43.1963 5.72277 44.2253C6.70963 45.246 8.05316 45.8521 10.3819 46.176C12.767 46.5077 15.9127 46.5116 20.3488 46.5116H29.6512C34.0872 46.5116 37.233 46.5077 39.6181 46.176C41.9467 45.8521 43.2905 45.246 44.2772 44.2253C45.2721 43.1963 45.8688 41.7821 46.1856 39.3449C46.5081 36.8633 46.5116 33.5951 46.5116 29.0116V25.4742C46.5116 22.7809 46.5098 20.8805 46.3684 19.3745C46.2302 17.9038 45.9679 16.9439 45.5184 16.1229C45.0705 15.3048 44.4156 14.5852 43.277 13.7133C42.1067 12.8171 40.5379 11.8411 38.3035 10.4543L33.6523 7.56772C31.29 6.10165 29.6291 5.07333 28.2407 4.39812C26.8879 3.7403 25.9298 3.48837 25 3.48837C24.0702 3.48837 23.1121 3.7403 21.7593 4.39814ZM16.2791 38.9535C16.2791 37.9902 17.06 37.2093 18.0232 37.2093H31.9767C32.94 37.2093 33.7209 37.9902 33.7209 38.9535C33.7209 39.9168 32.94 40.6977 31.9767 40.6977H18.0232C17.06 40.6977 16.2791 39.9168 16.2791 38.9535Z" fill="#1C274C"/>
</svg>
