<svg width="50" height="42" viewBox="0 0 50 42" fill="none" xmlns="http://www.w3.org/2000/svg">
<path fill-rule="evenodd" clip-rule="evenodd" d="M3.32691 11.9541C7.43091 6.62233 14.502 0.333496 25 0.333496C35.4979 0.333496 42.5691 6.62233 46.673 11.9541L46.747 12.0502C47.6753 13.2556 48.53 14.3658 49.11 15.6786C49.7312 17.0844 50 18.6165 50 20.6823C50 22.7481 49.7312 24.2802 49.11 25.6861C48.53 26.9988 47.6753 28.1091 46.747 29.3144L46.673 29.4105C42.5691 34.7423 35.4979 41.0312 25 41.0312C14.502 41.0312 7.43091 34.7423 3.32691 29.4105L3.25291 29.3144C2.32474 28.1091 1.46991 26.9988 0.889977 25.6861C0.26893 24.2802 0 22.7481 0 20.6823C0 18.6165 0.26893 17.0844 0.889977 15.6786C1.4699 14.3659 2.32471 13.2557 3.25283 12.0503L3.25288 12.0502L3.32691 11.9541ZM25 3.82187C16.0473 3.82187 9.88056 9.15889 6.09121 14.0819C5.07123 15.407 4.47381 16.1988 4.08084 17.0881C3.71358 17.9195 3.48837 18.9356 3.48837 20.6823C3.48837 22.4291 3.71358 23.4451 4.08084 24.2765C4.47381 25.1658 5.07126 25.9577 6.09121 27.2828C9.88056 32.2058 16.0473 37.5428 25 37.5428C33.9526 37.5428 40.1195 32.2058 43.9088 27.2828C44.9288 25.9577 45.5263 25.1658 45.9191 24.2765C46.2865 23.4451 46.5116 22.4291 46.5116 20.6823C46.5116 18.9356 46.2865 17.9195 45.9191 17.0881C45.5263 16.1988 44.9288 15.407 43.9088 14.0819C40.1195 9.15889 33.9526 3.82187 25 3.82187ZM16.2791 20.6823C16.2791 15.8659 20.1836 11.9614 25 11.9614C29.8165 11.9614 33.7209 15.8659 33.7209 20.6823C33.7209 25.4988 29.8165 29.4033 25 29.4033C20.1836 29.4033 16.2791 25.4988 16.2791 20.6823ZM25 15.4498C22.1102 15.4498 19.7674 17.7926 19.7674 20.6823C19.7674 23.5721 22.1102 25.9149 25 25.9149C27.8898 25.9149 30.2326 23.5721 30.2326 20.6823C30.2326 17.7926 27.8898 15.4498 25 15.4498Z" fill="#1C274C"/>
</svg>
