<svg width="24" height="24" viewBox="0 0 24 24" fill="none" xmlns="http://www.w3.org/2000/svg">
<path fill-rule="evenodd" clip-rule="evenodd" d="M9.71224 0.605291C10.4913 0.226404 11.2096 0 12 0C12.7904 0 13.5086 0.226404 14.2877 0.605291C15.0409 0.971542 15.911 1.51154 16.9977 2.18602L19.3046 3.61776L19.3063 3.61884C20.3338 4.25653 21.1567 4.76723 21.791 5.253C22.4483 5.7563 22.953 6.2689 23.3176 6.93503C23.6814 7.59976 23.8453 8.30706 23.9239 9.1431C24 9.9533 24 10.9441 24 12.1866V13.9869C24 16.1121 24 17.7897 23.8295 19.1013C23.6546 20.4469 23.2871 21.5331 22.4569 22.3919C21.6228 23.2548 20.5613 23.6402 19.2473 23.823C17.9738 24 16.3472 24 14.2974 24H9.70253C7.65272 24 6.02622 24 4.75268 23.823C3.43865 23.6402 2.37721 23.2548 1.5431 22.3919C0.712811 21.5331 0.345343 20.4469 0.170456 19.1013C-1.65937e-05 17.7897 -9.18244e-06 16.1121 2.04144e-07 13.9871L2.05066e-07 13.9869V12.1866C-9.18244e-06 10.9441 -9.18244e-06 9.9533 0.0761192 9.1431C0.154683 8.30706 0.31853 7.59976 0.682393 6.93503C1.04701 6.2689 1.5518 5.7563 2.209 5.253C2.84357 4.76702 3.66685 4.25608 4.69495 3.61801L4.69538 3.61775L7.00226 2.18603C8.08903 1.51154 8.95909 0.971553 9.71224 0.605291ZM10.4445 2.11111C9.77804 2.4352 8.98079 2.92879 7.84692 3.63251L5.61436 5.01809C4.54179 5.68375 3.78876 6.1522 3.22707 6.58236C2.68055 7.0009 2.36612 7.3463 2.15117 7.73899C1.93546 8.13309 1.80952 8.59384 1.74319 9.29976C1.67527 10.0226 1.67442 10.9348 1.67442 12.2276V13.9256C1.67442 16.1257 1.67608 17.6944 1.83091 18.8855C1.98298 20.0554 2.26941 20.7342 2.74693 21.2282C3.22062 21.7181 3.86552 22.009 4.98331 22.1645C6.12818 22.3237 7.6381 22.3256 9.76744 22.3256H14.2326C16.3619 22.3256 17.8718 22.3237 19.0167 22.1645C20.1344 22.009 20.7794 21.7181 21.2531 21.2282C21.7306 20.7342 22.017 20.0554 22.1691 18.8855C22.3239 17.6944 22.3256 16.1257 22.3256 13.9256V12.2276C22.3256 10.9348 22.3247 10.0226 22.2568 9.29976C22.1905 8.59384 22.0646 8.13309 21.8488 7.73899C21.6338 7.3463 21.3195 7.0009 20.7729 6.58236C20.2112 6.1522 19.4582 5.68375 18.3857 5.01809L16.1531 3.63251C15.0192 2.92879 14.222 2.4352 13.5555 2.1111C12.9062 1.79534 12.4463 1.67442 12 1.67442C11.5537 1.67442 11.0938 1.79534 10.4445 2.11111ZM7.81394 18.6977C7.81394 18.2353 8.18877 17.8605 8.65115 17.8605H15.3488C15.8112 17.8605 16.186 18.2353 16.186 18.6977C16.186 19.16 15.8112 19.5349 15.3488 19.5349H8.65115C8.18877 19.5349 7.81394 19.16 7.81394 18.6977Z" fill="#1C274C"/>
</svg>
