<?xml version="1.0" encoding="UTF-8"?>
<!-- Generated by Pixelmator Pro 3.3.2 -->
<svg width="1024" height="1024" viewBox="0 0 1024 1024" xmlns="http://www.w3.org/2000/svg" xmlns:xlink="http://www.w3.org/1999/xlink">
    <path id="path1" fill="#664c71" fill-rule="evenodd" stroke="none" d="M 0 1024 L 1024 1024 L 1024 0 L 0 0 Z"/>
    <g id="g1">
        <path id="path2" fill="#664c71" stroke="none" d="M 872.80957 519.040771 C 875.386353 514.572388 875.386353 509.066528 872.80957 504.598083 L 698.567139 202.801025 C 695.985474 198.332092 691.217896 195.578186 686.059509 195.578186 L 337.576477 195.578186 C 332.41568 195.578186 327.648621 198.332092 325.067932 202.801025 L 150.825958 504.598083 C 148.247238 509.066528 148.247238 514.572388 150.825958 519.040771 L 220.297119 639.373169 C 206.384354 660.585938 199.53656 686.619263 200.755951 713.65625 C 200.554245 714.042358 200.420578 714.471802 200.458206 714.935059 C 200.492004 715.374146 200.671036 715.745728 200.90506 716.083496 C 200.957657 716.937622 200.989975 717.791748 201.059479 718.645874 C 205.958282 778.732483 250.276718 825.799927 301.956909 825.799927 C 304.278931 825.799927 306.63327 825.70343 308.95575 825.515259 C 314.840393 825.032715 320.544067 823.922852 326.053802 822.311157 C 328.762817 825.901306 333.013062 828.058289 337.576477 828.058289 L 686.059509 828.058289 C 691.217896 828.058289 695.985474 825.302979 698.567139 820.834595 L 717.526306 787.997314 C 724.528076 779.292175 730.308899 769.28418 734.63739 758.354492 L 872.80957 519.040771 Z"/>
        <path id="path3" fill="#d0516d" stroke="none" d="M 383.035706 651.277588 C 383.64856 652.411621 384.234802 653.56488 384.815308 654.727783 C 386.856476 653.42981 388.877411 652.136475 390.871765 650.852966 C 388.905396 649.487305 387.007538 648.005981 385.1922 646.394287 L 383.035706 651.277588 Z"/>
        <path id="path4" fill="#d0516d" stroke="none" d="M 290.211731 595.707642 C 292.530396 595.519409 294.884705 595.422974 297.218292 595.422974 L 297.218292 597.473755 L 297.219757 597.473755 L 297.219757 595.422974 C 306.094238 595.422974 314.742462 596.841614 323.020966 599.442505 C 322.550049 597.859741 322.21225 596.209473 322.074707 594.501282 C 321.575287 588.38739 323.337524 582.437622 327.03241 577.756958 C 330.809784 572.970093 336.140472 570.069946 342.045837 569.587402 L 345.679901 569.293091 C 345.570831 567.869507 345.655273 566.479797 345.88739 565.143188 C 345.491699 564.510986 345.221985 563.787231 345.155853 562.99585 L 344.788666 558.488892 L 292.20224 592.286377 C 291.414215 592.797852 290.50943 593.05365 289.60083 593.05365 C 288.871704 593.05365 288.140167 592.889587 287.465576 592.551758 C 285.94989 591.803833 284.9375 590.317566 284.80191 588.628662 L 281.505188 548.210632 L 276.298981 549.885132 L 276.86261 556.795166 C 277.007843 558.566101 276.165314 560.274292 274.666534 561.234497 L 221.876984 595.162354 C 221.087051 595.669067 220.182281 595.924805 219.273651 595.924805 C 218.544037 595.924805 217.814911 595.760742 217.139832 595.427795 C 215.624634 594.67981 214.612244 593.188721 214.474716 591.5047 L 204.684341 471.490723 C 204.548752 469.822571 205.289459 468.203064 206.63913 467.215332 C 207.477798 466.601074 208.476685 466.284485 209.485199 466.284485 C 210.099487 466.284485 210.718109 466.401245 211.304398 466.642578 L 268.778015 490.097656 C 270.457275 490.782837 271.6091 492.355957 271.756287 494.165527 L 273.137817 511.11731 L 278.37442 509.814453 L 275.015411 468.61615 C 274.877899 466.948059 275.618622 465.330444 276.968262 464.34082 C 277.804993 463.726563 278.803864 463.409973 279.812408 463.409973 C 280.427155 463.409973 281.045288 463.528687 281.633514 463.768066 L 339.105194 487.22168 C 340.784973 487.90686 341.93631 489.47998 342.083496 491.289551 L 342.298218 493.909729 L 367.83551 487.559509 L 363.94519 439.836609 C 363.841492 438.564209 364.246796 437.303284 365.074402 436.329041 C 365.900024 435.356201 367.079834 434.751099 368.352295 434.645447 L 465.242188 426.743713 L 458.23175 340.799927 L 411.805573 344.586914 L 398.394165 346.388794 C 321.955994 367.884705 254.348938 406.780334 197.444229 462.003845 C 196.514862 462.904785 195.304626 463.362671 194.089096 463.362671 C 193.263458 463.362671 192.460495 463.0896 191.715927 462.66156 L 163.335968 511.817078 L 229.783966 626.909058 C 245.981598 608.567505 267.098755 597.5896 290.211731 595.707642 Z"/>
        <path id="path5" fill="#664c71" stroke="none" d="M 325.597809 396.758301 C 327.854187 395.657654 329.980255 394.618713 331.625763 393.727417 C 338.249664 390.145996 343.516174 386.860352 348.200226 383.386536 C 350.856171 381.416748 353.327301 378.683594 355.943665 375.792175 C 359.675629 371.667908 363.536011 367.402161 368.519745 364.740417 C 373.703278 361.973511 382.928589 359.104797 390.532043 358.96875 L 391.10144 358.96344 C 396.94458 358.96344 401.149994 360.608887 403.600342 363.854492 C 405.116028 365.861938 406.590179 369.420654 405.008423 374.971924 C 402.961456 382.159424 392.634033 389.884033 383.118683 396.560486 L 382.272308 397.154053 C 377.950165 400.19458 373.320587 402.899231 368.842102 405.515625 C 365.80014 407.291321 362.652008 409.128845 359.724884 411.008362 C 355.934021 413.439941 353.689209 416.538818 351.312164 419.820679 C 349.144562 422.811951 346.903137 425.906982 343.478516 428.630981 C 337.035583 433.754211 324.738373 436.434204 315.920319 436.434204 C 299.370483 436.434204 296.737183 428.329407 296.37384 424.843933 C 295.003418 411.711426 312.687744 403.069031 325.597809 396.758301 Z"/>
        <path id="path6" fill="#d0516d" stroke="none" d="M 680.220703 545.489075 C 682.802307 537.150696 686.826721 529.593994 691.98999 523.243713 L 684.187256 511.305542 C 682.623779 510.475586 681.214722 509.356079 680.037292 508.009766 L 612.973145 545.547058 C 612.953796 545.556641 612.939331 545.556641 612.924866 545.566284 C 612.596741 545.744812 612.249329 545.889648 611.877747 545.986084 C 611.795715 546.010254 611.704041 546.015137 611.617188 546.034302 C 611.419312 546.07782 611.221497 546.13092 611.009155 546.145386 L 608.422668 546.357666 C 609.465027 548.292725 610.145447 550.464111 610.343262 552.785156 L 613.981628 552.490845 C 614.555847 552.442566 615.125244 552.418457 615.68988 552.418457 C 625.953552 552.418457 634.813171 560.08606 637.16803 570.407715 C 641.39502 569.191772 645.506348 567.724792 649.477661 565.958618 C 660.942993 560.858215 670.859314 553.571716 680.220703 545.489075 Z"/>
        <path id="path7" fill="#d0516d" stroke="none" d="M 725.025085 482.830505 C 728.938538 485.248047 731.722778 489.542725 732.132996 494.551575 C 732.345337 497.138 731.911072 499.623108 730.974854 501.838013 C 731.356079 501.59668 731.722778 501.33136 732.108826 501.094849 C 735.380493 499.072998 739.873047 497.195862 745.15686 495.58905 C 744.611633 493.075012 744.177307 490.512695 743.965027 487.873108 C 743.506592 482.293457 743.86853 476.866272 744.886658 471.717041 L 725.025085 482.830505 Z"/>
        <path id="path8" fill="#d0516d" stroke="none" d="M 813.229614 435.103821 C 812.192139 435.103821 811.154663 434.769897 810.286072 434.099182 L 777.333069 408.639099 L 757.201233 393.090027 C 698.041138 358.829285 634.340271 338.34375 567.304993 331.904663 L 521.9505 335.602905 L 528.957092 421.549133 L 571.729919 418.059814 L 621.905029 413.969788 L 617.977173 365.865784 C 617.764771 363.213684 619.733582 360.889709 622.387634 360.6745 L 649.294373 358.480896 L 649.690063 358.463501 C 652.170349 358.463501 654.279053 360.37146 654.48175 362.887451 L 658.52063 412.410645 L 748.404419 410.789795 L 748.491272 410.789795 C 748.964172 410.789795 749.432251 410.883911 749.890686 411.021423 C 750.030579 411.06488 750.156067 411.121277 750.291138 411.176331 C 750.445618 411.23999 750.609619 411.276184 750.754395 411.355347 C 750.797913 411.376099 750.826782 411.409851 750.865417 411.430603 C 751.830505 410.974609 752.863098 410.656128 753.93927 410.567322 L 766.736328 409.525024 C 766.982422 409.504272 767.223694 409.492676 767.469788 409.492676 C 771.310913 409.492676 774.650085 412.015015 776.039795 415.569885 C 776.092896 415.567993 776.150818 415.562683 776.199097 415.562683 C 782.448059 415.562683 787.760864 420.6651 788.291687 427.177551 C 788.450867 429.137634 788.127625 431.00946 787.495422 432.72876 C 810.759033 432.773621 830.68811 453.790894 832.878906 480.617554 C 833.5979 489.431763 832.348083 498.049988 829.380432 505.852783 C 831.310608 508.304138 832.796814 511.078796 833.742676 514.215271 C 836.097473 522.05188 832.526611 534.100952 831.436096 541.841064 C 829.887146 552.87207 826.871216 564.602783 823.276245 575.947388 L 860.301941 511.817078 L 815.63269 434.455322 C 814.889587 434.884766 814.064453 435.103821 813.229614 435.103821 Z"/>
        <path id="path9" fill="#664c71" stroke="none" d="M 600.388306 370.685852 C 601.112122 372.783508 602.801086 377.695862 598.207214 381.56012 C 595.799316 383.586304 592.585571 384.57019 588.392212 384.57019 C 585.550049 384.57019 582.74646 384.134949 580.270996 383.750366 C 579.561707 383.640808 578.886108 383.535095 578.258789 383.450684 C 573.061768 382.745728 567.903381 382.468201 562.450562 382.17627 C 561.157349 382.106323 559.864136 382.036804 558.570923 381.96344 L 558.281311 381.946106 C 551.887634 381.575012 545.276733 381.194275 541.985779 374.640381 C 539.191895 369.074219 540.567139 363.532166 545.493896 360.523987 C 548.321655 358.795471 551.35199 358.537292 554.02533 358.311035 C 555.183472 358.211182 556.274048 358.118958 557.195618 357.915344 C 558.725342 357.577515 559.622803 357.174622 560.973999 356.559875 C 561.746033 356.209534 562.619446 355.813354 563.700378 355.396912 C 569.486084 353.170959 576.74353 351.8927 583.619812 351.8927 C 585.550049 351.8927 587.446472 351.992554 589.25116 352.188477 C 592.952332 352.588501 597.893555 353.57959 600.417297 356.009277 C 605.459839 360.859314 602.096558 366.237305 600.832275 368.261597 C 600.576538 368.674683 600.204956 369.26239 600.045715 369.611267 C 600.118103 369.901794 600.277283 370.357788 600.388306 370.685852 Z"/>
        <path id="path10" fill="#d0516d" stroke="none" d="M 521.521057 599.7948 C 506.335327 599.7948 506.335327 623.343018 521.521057 623.343018 C 536.711609 623.343018 536.711609 599.7948 521.521057 599.7948 Z"/>
        <path id="path11" fill="#d0516d" stroke="none" d="M 544.678406 575.093262 C 545.358826 571.300537 546.927124 567.734497 549.325317 564.704041 C 549.846497 564.042969 550.40625 563.425293 550.980408 562.83667 C 550.324219 561.268311 549.885071 559.574585 549.740356 557.793945 C 549.552124 555.477783 549.851257 553.200195 550.570313 551.077026 L 465.417389 558.020813 C 470.981598 567.266357 474.617554 578.181519 475.58075 589.974976 C 475.752533 592.08374 475.833649 594.177979 475.83551 596.262573 C 477.5336 594.954834 479.237946 593.666504 480.930206 592.310547 C 500.742584 576.468506 518.263855 575.083618 543.037781 575.083618 C 543.578186 575.083618 544.133118 575.093262 544.678406 575.093262 Z"/>
        <path id="path12" fill="#d0516d" stroke="none" d="M 506.523468 674.275757 C 500.235962 682.614136 494.638428 691.657043 485.17569 696.670654 C 476.813629 701.100464 477.703461 716.725342 487.988922 718.1922 C 499.044037 719.770142 509.327118 717.260986 516.51709 708.160156 C 522.708069 700.323608 525.723999 690.962158 528.82196 681.591125 C 533.483398 667.500854 512.014893 661.309692 506.523468 674.275757 Z"/>
        <path id="path13" fill="#d0516d" stroke="none" d="M 424.2258 794.627502 C 427.46225 794.531006 430.666351 794.246216 433.85788 793.874756 C 451.885315 802.034546 470.129913 796.427368 488.896118 792.484985 C 498.715912 792.962769 508.15448 792.272644 518.345825 787.953918 C 521.356995 786.67511 523.074829 784.52301 523.822754 782.057129 C 532.185303 777.04834 530.02832 760.646606 517.472473 759.932434 C 501.717377 759.03009 485.986359 758.180786 470.199402 758.619873 C 455.653564 759.025269 437.661346 759.811768 425.377136 768.632751 C 424.282257 769.419312 423.365936 770.297485 422.589478 771.233704 C 409.100891 773.289307 409.602264 795.076294 424.2258 794.627502 Z"/>
        <path id="path14" fill="#d0516d" stroke="none" d="M 430.168823 698.760132 C 432.336426 697.621338 434.085632 695.850342 436.249878 694.711548 C 441.92511 691.719788 443.608704 683.950806 440.475555 678.599365 C 437.128143 672.881165 430.044342 671.385254 424.365265 674.372253 C 422.199097 675.511047 420.44986 677.286804 418.282288 678.43042 C 412.610443 681.417419 410.923462 689.186401 414.059998 694.537842 C 417.405975 700.251221 424.491211 701.756714 430.168823 698.760132 Z"/>
        <path id="path15" fill="#65a9c9" stroke="none" d="M 385.791504 341.87793 L 380.076263 271.814697 C 379.971039 270.540283 380.376373 269.279419 381.203491 268.306519 C 382.031006 267.332336 383.209412 266.727234 384.481384 266.623474 L 562.296143 252.122498 L 562.687012 252.105591 C 563.825745 252.105591 564.930847 252.508972 565.80426 253.249695 C 566.779053 254.077271 567.382202 255.255676 567.483521 256.529602 L 573.196838 326.593262 C 573.230652 326.953308 573.211365 327.303528 573.163086 327.646667 C 639.078857 334.668152 701.332092 355.118042 759.89386 389.082947 C 777.675659 402.820068 795.452637 416.553833 813.229614 430.28949 L 686.059509 210.022278 L 337.576477 210.022278 L 194.091019 458.548828 C 249.287521 404.984253 313.611359 367.044128 387.062073 344.735535 C 386.359009 343.972168 385.882233 342.992126 385.791504 341.87793 Z"/>
        <path id="path16" fill="#ffffff" stroke="none" d="M 419.845245 638.818237 C 416.774323 635.947144 413.97171 632.308716 411.538269 628.067139 L 392.60556 629.611328 L 387.218384 641.810059 C 387.299469 641.887207 387.38443 641.964478 387.467407 642.041748 C 387.855865 641.660461 388.349487 641.385437 388.931915 641.34198 L 419.845245 638.818237 Z"/>
        <path id="path17" fill="#ffffff" stroke="none" d="M 406.177124 563.454285 C 406.220581 563.767883 406.273651 564.086426 406.297791 564.414551 C 406.307434 564.520691 406.303589 564.622009 406.309387 564.728271 C 406.471497 564.293945 406.610962 563.830627 406.782257 563.406006 L 406.177124 563.454285 Z"/>
        <path id="path18" fill="#ffffff" stroke="none" d="M 409.136597 623.429871 C 407.545624 620.008667 406.180969 616.283386 405.087524 612.326477 L 399.964355 612.746338 C 399.787262 613.248169 399.612122 613.75 399.393524 614.237427 L 394.818481 624.597656 L 409.136597 623.429871 Z"/>
        <path id="path19" fill="#ffffff" stroke="none" d="M 460.080902 558.455139 L 454.554291 558.90387 C 459.903809 567.551086 463.643524 578.992249 464.683899 591.750793 C 467.015564 620.312622 454.951904 644.608765 437.746246 646.013062 C 433.597809 646.35083 429.531891 645.318115 425.713013 643.170837 L 392.117676 645.911743 C 400.377441 652.025513 410.088654 655.552979 420.329254 655.552979 C 421.537537 655.552979 422.757446 655.499878 423.97876 655.39856 C 452.565704 653.072693 473.522705 623.955933 470.781799 590.365845 C 469.805634 578.384216 465.941406 567.45459 460.080902 558.455139 Z"/>
        <path id="path20" fill="#ffffff" stroke="none" d="M 449.944031 578.307007 C 448.439453 574.282593 446.490479 571.213623 444.665955 569.621216 C 443.440796 568.540283 442.390747 568.149414 441.516388 568.149414 L 441.277039 568.159058 C 440.479401 568.231445 439.663422 568.603027 438.730164 569.524658 C 437.812378 570.441528 436.871887 571.898804 436.076172 573.800049 C 434.476044 577.597656 433.459808 583.103516 433.467529 589.318726 C 433.467529 590.925537 433.53363 592.585571 433.673096 594.279297 C 434.11026 599.68866 435.227844 604.654053 436.741608 608.678467 C 438.245697 612.702881 440.192749 615.76709 442.017761 617.359497 C 443.24295 618.440369 444.292938 618.831299 445.167328 618.831299 L 445.406677 618.821594 C 446.204315 618.754028 447.022217 618.382446 447.954987 617.460815 C 448.875214 616.539185 449.815674 615.081848 450.610962 613.180603 C 452.21347 609.378174 453.227295 603.872314 453.220062 597.652344 C 453.220062 596.04541 453.155884 594.395142 453.018341 592.706177 C 452.575378 587.291992 451.459259 582.32666 449.944031 578.307007 Z"/>
        <path id="path21" fill="#ffffff" stroke="none" d="M 606.420166 599.669312 L 568.11084 602.791382 C 567.53656 602.839722 566.967224 602.86377 566.397827 602.86377 C 565.760803 602.86377 565.133545 602.820313 564.511047 602.767273 L 577.066895 621.982239 C 585.84436 612.669128 595.944092 605.406799 606.960571 600.494507 L 606.420166 599.669312 Z"/>
        <path id="path22" fill="#ffffff" stroke="none" d="M 738.290283 700.516602 C 735.674866 668.43689 721.627991 640.541016 701.356201 621.938843 C 700.453857 621.181274 699.561157 620.389893 698.697327 619.579163 C 682.647949 605.855591 663.032471 597.787354 642.196106 597.787354 C 640.217651 597.787354 638.229614 597.883911 636.231873 598.033447 C 622.426208 602.714233 609.180359 610.502502 597.806702 620.713135 L 653.690369 616.153076 C 656.744873 615.004639 659.915161 614.256714 663.196533 613.98645 C 694.359253 611.443481 723.027283 651.306519 727.249634 703.025879 C 731.462219 754.740234 709.627014 798.724304 678.469055 801.267334 C 669.923218 801.962158 661.565491 799.44812 653.849609 794.395874 L 628.477295 796.466003 C 637.003906 807.168823 646.539001 814.831665 656.677307 817.915161 C 706.823486 811.864014 743.144714 760.091736 738.290283 700.516602 Z"/>
        <path id="path23" fill="#ffffff" stroke="none" d="M 618.840881 738.362671 L 600.615112 739.848877 C 603.138855 748.163147 606.067871 756.192688 609.368469 763.74939 L 627.584595 762.263184 C 624.057251 755.01532 621.09436 746.985718 618.840881 738.362671 Z"/>
        <path id="path24" fill="#ffffff" stroke="none" d="M 573.626343 712.60437 L 561.939087 713.559814 C 562.161072 723.061157 562.976563 731.129272 564.182922 737.991089 L 575.571045 737.064575 C 574.533508 729.194336 573.790405 720.870361 573.626343 712.60437 Z"/>
        <path id="path25" fill="#ffffff" stroke="none" d="M 562.397461 691.618408 C 562.021118 697.780579 561.871521 703.440796 561.881165 708.734375 L 573.597351 707.774048 C 573.669739 699.112427 574.446594 690.634033 576.256165 682.947144 L 563.184082 684.008667 C 562.836609 686.517883 562.556763 689.046387 562.397461 691.618408 Z"/>
        <path id="path26" fill="#ffffff" stroke="none" d="M 565.123901 742.744141 C 567.541443 753.712402 570.967468 761.244995 574.330811 766.606079 L 580.898254 766.070435 C 579.330017 759.406494 577.617004 751.02948 576.24176 741.836975 L 565.123901 742.744141 Z"/>
        <path id="path27" fill="#ffffff" stroke="none" d="M 584.416016 779.272888 C 583.832153 777.434387 583.002197 774.529419 582.051575 770.809021 L 577.525269 771.175781 C 580.521912 775.031311 583.118042 777.371643 584.416016 779.272888 Z"/>
        <path id="path28" fill="#ffffff" stroke="none" d="M 614.420776 712.223145 C 614.338745 711.24353 614.285645 710.26886 614.227722 709.294067 L 593.753296 710.963684 C 595.171997 719.138062 597.025024 727.23999 599.239807 735.129517 L 617.687622 733.624023 C 616.143433 726.79126 615.023987 719.63501 614.420776 712.223145 Z"/>
        <path id="path29" fill="#ffffff" stroke="none" d="M 590.592712 681.779297 C 590.93042 689.842651 591.750793 698.031494 592.995789 706.196167 L 613.996155 704.483154 C 613.716248 695.927551 614.136047 687.627808 615.212158 679.771912 L 590.592712 681.779297 Z"/>
        <path id="path30" fill="#ffffff" stroke="none" d="M 629.963562 766.900391 L 611.462769 768.410767 C 615.5354 777.082153 620.100403 785.000732 625.041626 791.915588 L 648.049377 790.038452 C 641.255127 784.204529 635.112366 776.319702 629.963562 766.900391 Z"/>
        <path id="path31" fill="#ffffff" stroke="none" d="M 572.530945 653.806152 C 568.636841 661.710266 565.717407 670.188599 563.994751 679.115662 L 577.602539 678.005859 C 580.338562 669.233154 584.657288 661.792236 591.152405 656.759338 C 590.53479 663.307495 590.307922 670.077576 590.438171 676.958679 L 615.979431 674.874023 C 617.571777 665.725037 620.047241 657.237061 623.260986 649.670715 L 572.530945 653.806152 Z"/>
        <path id="path32" fill="#ffffff" stroke="none" d="M 575.19458 648.76355 L 625.548218 644.657104 C 630.344788 634.986877 636.458618 627.164795 643.542419 621.813354 L 592.300842 625.992188 C 585.704468 632.762329 579.899475 640.401001 575.19458 648.76355 Z"/>
        <path id="path33" fill="#ffffff" stroke="none" d="M 692.298828 661.497925 C 689.852295 659.336121 687.502319 658.342102 685.306702 658.342102 L 684.708374 658.371033 C 682.715454 658.535095 680.794922 659.495361 678.87439 661.40625 C 676.968384 663.312256 675.163635 666.159302 673.65332 669.763916 C 670.622864 676.978027 668.769897 687.159729 668.779541 698.620178 C 668.779541 701.587891 668.900146 704.647217 669.151123 707.764404 C 669.966614 717.724121 672.012634 726.878052 674.830627 734.362305 C 677.634277 741.841797 681.253418 747.627502 684.915833 750.850952 C 687.367188 753.012756 689.717224 754.006836 691.912781 754.001953 L 692.506348 753.982666 C 694.499207 753.813782 696.424561 752.858337 698.340271 750.942627 C 700.246399 749.041382 702.051086 746.189575 703.561462 742.584961 C 706.59668 735.375671 708.444824 725.19397 708.440002 713.733521 C 708.440002 710.765869 708.319336 707.706543 708.063538 704.589294 C 707.25293 694.629517 705.202087 685.470825 702.384033 677.991333 C 699.580444 670.511902 695.966187 664.721313 692.298828 661.497925 Z"/>
        <path id="path34" fill="#ffffff" stroke="none" d="M 618.300415 537.049377 L 668.215027 497.104248 L 646.399109 501.258911 L 725.083008 441.203186 L 731.486389 456.897522 L 743.525879 432.43103 C 743.419678 431.908875 743.29425 431.39209 743.250854 430.849243 C 743.014404 427.944824 743.786499 425.220825 745.205078 422.96106 L 611.882629 497.581909 L 615.236267 538.76239 L 618.300415 537.049377 Z"/>
        <path id="path35" fill="#ffffff" stroke="none" d="M 578.562744 442.590515 L 582.596863 492.032654 L 595.649719 490.971069 L 685.630066 440.613525 L 581.974365 476.838257 L 632.255676 445.653748 L 621.388733 442.049622 L 578.562744 442.590515 Z"/>
        <path id="path36" fill="#65a9c9" stroke="none" d="M 509.066498 423.169983 L 515.252747 382.796387 L 489.171173 414.309021 L 501.669067 356.708984 L 468.994965 339.923584 L 463.031189 340.409546 L 470.041107 426.351929 L 509.066498 423.169983 Z"/>
        <path id="path37" fill="#eab96a" stroke="none" d="M 628.64624 437.40509 L 644.579895 436.106567 L 638.716919 364.172974 L 622.778442 365.473938 L 628.64624 437.40509 Z"/>
        <path id="path38" fill="#ffffff" stroke="none" d="M 380.059357 646.095093 L 394.990265 612.297546 C 395.057861 612.138306 395.107086 611.974243 395.171234 611.815063 L 353.48941 615.216919 L 353.315674 615.607788 C 363.715057 623.777344 372.808136 634.123108 380.059357 646.095093 Z"/>
        <path id="path39" fill="#ffffff" stroke="none" d="M 395.07135 606.994385 C 404.495972 606.231934 411.460999 597.401367 410.638763 587.277588 C 410.201599 581.935791 407.67981 577.308167 404.013428 574.239136 C 401.555298 578.331177 397.366821 581.207153 392.41156 581.612488 L 362.171387 584.078247 C 361.773743 584.112061 361.37616 584.126526 360.981903 584.126526 C 354.646545 584.126526 349.080414 579.952515 346.76947 574.036499 L 342.436249 574.388733 C 333.014984 575.156006 326.048492 583.98175 326.872162 594.110352 C 327.094635 596.812683 327.865234 599.326721 329.033997 601.556091 C 335.256409 604.01709 341.233246 607.158447 346.886261 610.927124 L 395.07135 606.994385 Z"/>
        <path id="path40" fill="#ffffff" stroke="none" d="M 360.981903 579.315552 C 361.24588 579.315552 361.511749 579.305908 361.781006 579.276917 L 392.021179 576.811157 C 397.759155 576.3479 402.000214 570.967529 401.500793 564.800537 C 401.455444 564.269775 401.342499 563.763123 401.232971 563.256409 L 350.499542 567.391846 C 350.475433 567.912964 350.43924 568.429321 350.482666 568.964966 C 350.961823 574.837524 355.583649 579.315552 360.981903 579.315552 Z"/>
        <path id="path41" fill="#ffffff" stroke="none" d="M 566.397827 598.047974 C 566.836914 598.047974 567.276001 598.033447 567.715149 597.994873 L 617.359497 593.94635 C 626.783569 593.179077 633.751526 584.343628 632.92157 574.224731 C 632.13501 564.57373 624.55426 557.234253 615.68988 557.234253 C 615.255615 557.234253 614.816467 557.25354 614.377319 557.287354 L 610.048828 557.639587 C 609.493958 560.279053 608.311768 562.759399 606.579407 564.800537 C 603.978455 567.869507 600.383484 569.732178 596.470032 570.050659 L 566.228882 572.516479 C 565.828369 572.54541 565.432678 572.564758 565.036987 572.564758 C 560.539673 572.564758 556.428406 570.460815 553.595825 567.121643 C 550.473816 570.745605 548.72699 575.710938 549.161255 581.052734 C 549.952637 590.703613 557.538269 598.047974 566.397827 598.047974 Z"/>
        <path id="path42" fill="#ffffff" stroke="none" d="M 565.036987 567.748901 C 565.302429 567.748901 565.567871 567.739319 565.838074 567.719971 L 596.079224 565.24939 C 601.81189 564.786133 606.058228 559.405762 605.551575 553.23877 C 605.348877 550.758484 604.378967 548.553284 602.955505 546.801636 L 556.051941 550.628174 C 554.927673 552.58252 554.334167 554.91803 554.536804 557.403198 C 555.019348 563.275757 559.637329 567.748901 565.036987 567.748901 Z"/>
        <path id="path43" fill="#ffffff" stroke="none" d="M 691.710083 512.869019 C 691.463989 512.888306 691.222717 512.888306 690.976624 512.897949 L 695.295471 519.503967 C 698.074951 516.613525 701.105286 514.036743 704.36731 511.836304 L 691.710083 512.869019 Z"/>
        <path id="path44" fill="#ffffff" stroke="none" d="M 756.351929 442.41925 L 758.340088 445.465027 C 759.560852 444.211914 760.834778 443.037354 762.17627 441.943909 L 756.351929 442.41925 Z"/>
        <path id="path45" fill="#ffffff" stroke="none" d="M 777.299255 440.711487 L 772.208435 441.125977 C 769.472351 442.471863 766.919678 444.179565 764.56012 446.179688 L 796.437073 443.580261 C 797.213928 443.516052 797.908875 443.857239 798.391357 444.398132 C 810.744507 445.154297 821.71759 461.35144 823.406555 482.070984 C 825.191895 503.951538 815.951172 522.563354 802.768066 523.639404 C 799.940369 523.871094 797.175354 523.234009 794.535828 521.950562 L 773.921448 523.629761 C 775.354614 525.328308 776.715393 527.118591 777.989319 528.986023 C 781.637329 530.259949 785.478455 530.94519 789.420776 530.94519 C 790.352112 530.94519 791.278687 530.906494 792.219604 530.834106 C 814.122375 529.048706 830.176636 506.740662 828.077576 481.009399 C 826.07019 456.378845 808.153259 437.538757 787.413452 437.538757 C 786.486938 437.538757 785.555603 437.576904 784.619507 437.652161 C 784.450623 437.667114 784.291321 437.706665 784.127319 437.72168 C 782.269531 439.386475 779.929138 440.496277 777.299255 440.711487 Z"/>
        <path id="path46" fill="#ffffff" stroke="none" d="M 749.176514 475.241516 C 748.785645 477.924011 748.578125 480.674011 748.607117 483.486755 L 775.460754 481.296021 C 775.431824 478.668579 775.557312 476.106689 775.837219 473.637512 L 750.71582 475.686462 C 750.141602 475.733704 749.615601 475.544983 749.176514 475.241516 Z"/>
        <path id="path47" fill="#ffffff" stroke="none" d="M 777.916931 498.382935 L 751.454163 500.539978 C 752.337158 503.145691 753.418091 505.625916 754.658203 507.975952 C 754.769226 507.951904 754.865723 507.898804 754.976685 507.889099 L 780.628845 505.794922 C 779.586548 503.483459 778.669678 501.008057 777.916931 498.382935 Z"/>
        <path id="path48" fill="#ffffff" stroke="none" d="M 783.007813 510.432129 L 761.264221 512.203064 C 764.270508 514.224976 767.112671 516.545959 769.761902 519.137207 L 788.528076 517.607605 C 786.511108 515.619507 784.653259 513.206787 783.007813 510.432129 Z"/>
        <path id="path49" fill="#ffffff" stroke="none" d="M 775.673096 486.106995 L 748.862854 488.297729 C 749.11377 490.922791 749.538452 493.480286 750.13678 495.95575 C 750.34906 495.873718 750.566284 495.782043 750.802673 495.762695 L 776.749146 493.64917 C 776.257019 491.221924 775.895081 488.703125 775.673096 486.106995 Z"/>
        <path id="path50" fill="#ffffff" stroke="none" d="M 753.751099 462.978088 C 753.345703 463.01239 752.96936 462.915833 752.617065 462.763428 C 751.516846 465.377808 750.628967 468.125854 749.972717 470.989319 C 750.093323 470.960876 750.194702 470.898621 750.325012 470.887512 L 776.614075 468.74408 C 777.173767 465.969421 777.912048 463.349609 778.838623 460.933044 L 753.751099 462.978088 Z"/>
        <path id="path51" fill="#ffffff" stroke="none" d="M 761.693726 451.244507 C 761.04718 451.297119 760.44397 451.082397 759.975891 450.70166 C 758.065002 452.931519 756.371216 455.402649 754.899536 458.054688 L 781.174133 455.911682 C 782.631409 453.293457 784.325134 451.046692 786.221497 449.242432 L 761.693726 451.244507 Z"/>
        <path id="path52" fill="#ffffff" stroke="none" d="M 806.411255 501.268616 C 807.284668 502.031006 807.955383 502.25293 808.452454 502.25293 L 808.592407 502.248108 C 809.041138 502.204712 809.538147 502.006836 810.189636 501.365051 C 810.821777 500.737793 811.516541 499.676208 812.100403 498.271912 C 813.292419 495.453918 814.064453 491.294373 814.05481 486.5896 C 814.059631 485.373474 814.006531 484.123718 813.905151 482.844971 C 813.572266 478.749634 812.722961 474.991089 811.584167 471.967407 C 810.455017 468.94043 808.992859 466.66333 807.699585 465.538025 C 806.826294 464.772705 806.155518 464.552124 805.658508 464.552124 L 805.518616 464.559875 C 805.069763 464.599487 804.567932 464.801147 803.921326 465.440063 C 803.284363 466.069275 802.594299 467.125061 802.010437 468.531189 C 800.818542 471.341614 800.046509 475.499634 800.05127 480.197266 C 800.05127 481.418579 800.10437 482.676086 800.20575 483.964478 C 800.543457 488.056519 801.388 491.815552 802.526733 494.841125 C 803.651123 497.866638 805.118042 500.139404 806.411255 501.268616 Z"/>
        <path id="path53" fill="#ffffff" stroke="none" d="M 768.290161 428.570679 L 755.497864 429.611023 C 755.25177 429.631775 755.005676 429.64093 754.759583 429.64093 C 752.370972 429.64093 750.156067 428.671936 748.496094 427.083435 C 748.129395 428.129089 747.950867 429.267944 748.047302 430.459351 C 748.38031 434.540222 751.589233 437.648254 755.338623 437.648254 L 755.898376 437.62561 L 776.908386 435.912109 C 780.889465 435.588318 783.842651 431.851929 783.490356 427.567383 C 783.171875 423.646729 780.194519 420.655457 776.638123 420.421936 C 776.0495 424.736328 772.652344 428.21405 768.290161 428.570679 Z"/>
        <path id="path54" fill="#ffffff" stroke="none" d="M 767.469788 414.309021 L 767.127258 414.322021 L 754.330078 415.364319 C 751.902832 415.564148 750.107788 417.839294 750.325012 420.448425 C 750.527588 422.934509 752.477112 424.827087 754.759583 424.827087 L 755.102112 424.813538 L 767.894409 423.77124 C 770.326538 423.573425 772.121521 421.296265 771.909241 418.687622 C 771.706543 416.201538 769.752197 414.309021 767.469788 414.309021 Z"/>
        <path id="path55" fill="#ffffff" stroke="none" d="M 691.275818 572.723999 L 686.551758 573.110046 C 686.677185 577.477051 687.010132 581.231262 687.482971 584.464294 L 692.115479 584.087952 C 691.685974 580.406128 691.377197 576.545776 691.275818 572.723999 Z"/>
        <path id="path56" fill="#ffffff" stroke="none" d="M 717.111328 571.165405 C 717.092041 570.981995 717.096802 570.803467 717.082397 570.620117 L 699.324707 572.067749 C 699.913391 575.865356 700.656555 579.634033 701.534729 583.320679 L 718.679626 581.921265 C 717.946106 578.471069 717.415344 574.871338 717.111328 571.165405 Z"/>
        <path id="path57" fill="#ffffff" stroke="none" d="M 698.682922 567.290527 L 716.841125 565.809082 C 716.763916 561.847412 716.990662 558.015991 717.444275 554.324463 L 697.823975 555.931335 C 697.934998 559.661499 698.229309 563.473572 698.682922 567.290527 Z"/>
        <path id="path58" fill="#ffffff" stroke="none" d="M 688.346741 589.222168 C 689.490356 594.395142 691.000793 597.874268 692.40979 600.325562 L 694.769531 600.132568 C 694.118042 597.092529 693.379761 593.188721 692.747559 588.865112 L 688.346741 589.222168 Z"/>
        <path id="path59" fill="#ffffff" stroke="none" d="M 696.091675 605.686646 C 696.02887 605.450195 695.956543 605.180054 695.874451 604.871216 L 695.570435 604.900146 C 695.778015 605.184814 695.951721 605.440552 696.091675 605.686646 Z"/>
        <path id="path60" fill="#ffffff" stroke="none" d="M 686.604797 562.933105 C 686.537231 564.80542 686.508301 566.576355 686.498657 568.284546 L 691.275818 567.893677 C 691.386841 563.787231 691.811462 559.840027 692.680054 556.351196 L 687.208008 556.795166 C 686.913635 558.797729 686.682007 560.834045 686.604797 562.933105 Z"/>
        <path id="path61" fill="#ffffff" stroke="none" d="M 719.832886 586.65509 L 702.750732 588.049683 C 703.822021 591.929321 705.047668 595.659424 706.403625 599.181946 L 723.88147 597.758423 C 722.293884 594.337219 720.928284 590.611938 719.832886 586.65509 Z"/>
        <path id="path62" fill="#ffffff" stroke="none" d="M 717.067932 626.117676 C 722.732971 628.544922 728.798584 629.876709 735.071655 629.876709 C 736.282837 629.876709 737.503723 629.833252 738.724548 629.731934 C 767.310547 627.401245 788.267578 598.279541 785.531494 564.699219 C 782.911255 532.547241 759.522278 507.951904 732.451477 507.956665 C 731.245056 507.956665 730.024231 508.000122 728.803406 508.10144 C 727.625977 508.197998 726.472717 508.352356 725.324219 508.540527 C 723.500244 509.693848 721.401184 510.446533 719.13324 510.629944 L 716.691528 510.832703 C 711.156677 512.912476 706.080383 516.058594 701.602295 520.054077 L 704.323853 519.832153 C 707.749939 518.022583 711.446228 516.893433 715.345154 516.574951 C 716.889404 516.449463 718.423828 516.46875 719.939026 516.594238 C 717.651794 517.168457 715.38385 518.032227 713.168945 519.108337 L 744.28833 516.570129 C 744.737061 516.536316 745.147217 516.661743 745.523621 516.845215 C 762.156982 516.767944 777.169006 538.332886 779.432129 566.079346 C 781.762756 594.641235 769.703979 618.937378 752.486755 620.341675 C 748.341675 620.679382 744.278687 619.646729 740.456909 617.49939 L 717.873779 619.342712 C 721.309509 623.08728 725.005798 625.398682 728.842041 625.721924 C 727.365417 626.093506 725.859863 626.354126 724.310913 626.484436 C 721.859558 626.682251 719.442017 626.542358 717.067932 626.117676 Z"/>
        <path id="path63" fill="#ffffff" stroke="none" d="M 726.284485 602.395752 L 708.328979 603.857849 C 710.153076 607.964355 712.1604 611.655762 714.312622 614.801941 L 734.589111 613.146851 C 731.520142 610.275635 728.716553 606.637329 726.284485 602.395752 Z"/>
        <path id="path64" fill="#ffffff" stroke="none" d="M 688.168213 551.887573 L 694.383423 551.37616 C 695.329224 549.3302 696.501831 547.554321 697.983215 546.179138 C 697.877075 547.790833 697.823975 549.441162 697.799805 551.101074 L 718.201904 549.43634 C 718.998047 545.252563 720.103149 541.30542 721.526611 537.729736 L 692.525635 540.09906 C 690.667847 543.727844 689.186401 547.67981 688.168213 551.887573 Z"/>
        <path id="path65" fill="#ffffff" stroke="none" d="M 695.478821 535.022705 L 723.886292 532.711304 C 726.091492 528.556519 728.740662 525.062927 731.761414 522.423462 L 704.705078 524.628601 C 701.274231 527.509399 698.142517 531.012695 695.478821 535.022705 Z"/>
        <path id="path66" fill="#ffffff" stroke="none" d="M 695.00592 527.118591 C 695.778015 526.278931 696.569397 525.473083 697.389648 524.72522 C 697.298035 524.672119 697.191833 524.638306 697.109802 524.570679 C 696.381165 525.391113 695.686279 526.245178 695.00592 527.118591 Z"/>
        <path id="path67" fill="#ffffff" stroke="none" d="M 759.416138 543.95459 C 758.19043 542.873718 757.143372 542.482788 756.269897 542.482788 L 756.023804 542.492493 C 755.2276 542.564819 754.407288 542.93158 753.475952 543.853271 C 752.559143 544.770081 751.618164 546.232178 750.82196 548.128662 C 749.21991 551.931091 748.206604 557.43689 748.211426 563.6521 C 748.211426 565.259033 748.283752 566.918945 748.418884 568.612671 C 748.858032 574.017212 749.972717 578.987427 751.487915 583.011841 C 752.988586 587.031494 754.938049 590.095581 756.762146 591.692871 C 757.987854 592.768921 759.034912 593.15979 759.913208 593.15979 L 760.154419 593.150146 C 760.950562 593.08252 761.766113 592.71106 762.697388 591.789368 C 763.61908 590.867676 764.56012 589.415222 765.351379 587.51886 C 766.953491 583.71637 767.97168 578.210571 767.961975 572.000183 C 767.961975 570.388428 767.899292 568.728516 767.759399 567.029907 C 767.320251 561.625427 766.205566 556.655151 764.690369 552.63562 C 763.184814 548.611206 761.235352 545.547058 759.416138 543.95459 Z"/>
        <path id="path68" fill="#ffffff" stroke="none" d="M 690.590637 508.10144 C 690.831909 508.10144 691.073181 508.091797 691.314453 508.067688 L 718.737488 505.833435 C 723.939392 505.408875 727.790039 500.535095 727.336548 494.942383 C 726.897339 489.610291 722.708862 485.556885 717.811096 485.556885 C 717.569763 485.556885 717.328491 485.566528 717.08728 485.585815 L 716.889404 485.605164 C 716.575745 487.636658 715.750549 489.576538 714.423523 491.135132 C 712.614014 493.263184 710.109619 494.561218 707.373535 494.783203 L 690.667847 496.148804 C 690.392761 496.168091 690.112915 496.182556 689.83783 496.182556 C 686.903992 496.182556 684.230652 494.874878 682.286011 492.819214 C 681.364319 494.541931 680.896301 496.573425 681.070007 498.715881 C 681.504272 504.043274 685.692749 508.10144 690.590637 508.10144 Z"/>
        <path id="path69" fill="#ffffff" stroke="none" d="M 706.418091 477.635437 L 705.979004 477.652344 L 689.273315 479.017395 C 686.102905 479.275635 683.762634 482.242249 684.04248 485.64856 C 684.30304 488.896118 686.855774 491.36676 689.83783 491.36676 L 690.281799 491.347412 L 706.982666 489.986633 C 710.153076 489.730957 712.498169 486.753601 712.218262 483.351685 C 711.952942 480.103149 709.400269 477.635437 706.418091 477.635437 Z"/>
        <path id="path70" fill="#ffffff" stroke="none" d="M 368.744141 439.444824 L 372.570709 486.382019 L 384.460663 483.424072 L 389.127869 456.118713 L 520.087891 442.484863 L 378.830292 448.844788 L 572.120789 422.859253 L 368.744141 439.444824 Z"/>
        <path id="path71" fill="#ffffff" stroke="none" d="M 349.955231 562.60498 L 610.618286 541.348877 L 606.830383 494.889343 L 578.191162 497.224915 L 572.120789 422.859253 L 527.157166 458.71814 L 559.217529 507.421082 L 603.693787 507.421082 L 571.840942 526.235535 L 600.914307 519.031128 L 603.693787 528.233276 L 404.925934 544.639832 L 605.594971 540.031494 L 365.594574 557.234253 L 366.527313 555.120728 L 357.790863 558.768677 L 351.498932 554.807068 L 349.391663 555.685242 L 349.955231 562.60498 Z"/>
        <path id="path72" fill="#ffffff" stroke="none" d="M 272.704498 736.075439 C 271.158905 729.237671 270.036987 722.086426 269.433807 714.6745 C 269.352722 713.690063 269.30014 712.720215 269.239807 711.745422 L 248.669357 713.4198 C 250.085159 721.594177 251.939102 729.696167 254.156387 737.585754 L 272.704498 736.075439 Z"/>
        <path id="path73" fill="#ffffff" stroke="none" d="M 239.331635 781.729065 C 238.749176 779.890503 237.915833 776.985657 236.967636 773.260376 L 232.439911 773.631958 C 235.435074 777.487427 238.032593 779.827759 239.331635 781.729065 Z"/>
        <path id="path74" fill="#ffffff" stroke="none" d="M 246.071823 659.215454 C 245.449814 665.763611 245.223984 672.533691 245.349945 679.414795 L 270.994812 677.325439 C 272.585785 668.17157 275.064117 659.683533 278.278381 652.117249 L 227.448929 656.262329 C 223.550461 664.166382 220.631042 672.644714 218.909805 681.571777 L 232.515671 680.466797 C 235.252197 671.689331 239.572891 664.248474 246.071823 659.215454 Z"/>
        <path id="path75" fill="#ffffff" stroke="none" d="M 269.009644 706.929626 C 268.732666 698.374084 269.152924 690.079102 270.2276 682.218506 L 245.506271 684.230591 C 245.847427 692.30365 246.665833 700.487671 247.911758 708.652283 L 269.009644 706.929626 Z"/>
        <path id="path76" fill="#ffffff" stroke="none" d="M 284.977112 769.346924 L 266.378296 770.866943 C 270.44812 779.538269 275.015411 787.456848 279.959564 794.371704 L 303.065308 792.484985 C 296.272034 786.651001 290.128723 778.771057 284.977112 769.346924 Z"/>
        <path id="path77" fill="#ffffff" stroke="none" d="M 282.598633 764.714478 C 279.071686 757.466675 276.110291 749.437073 273.855865 740.809143 L 255.532623 742.305054 C 258.054413 750.624146 260.983948 758.653687 264.284546 766.205566 L 282.598633 764.714478 Z"/>
        <path id="path78" fill="#ffffff" stroke="none" d="M 230.487045 739.520752 C 229.450531 731.650391 228.705963 723.326538 228.53804 715.065308 L 216.853668 716.015991 C 217.074188 725.522095 217.88826 733.590271 219.09848 740.447266 L 230.487045 739.520752 Z"/>
        <path id="path79" fill="#ffffff" stroke="none" d="M 231.171295 685.403259 L 218.101059 686.469666 C 217.748795 688.974121 217.469894 691.507446 217.311615 694.074585 C 216.934738 700.236694 216.785645 705.901794 216.794815 711.190491 L 228.511978 710.235046 C 228.585327 701.568542 229.363678 693.09021 231.171295 685.403259 Z"/>
        <path id="path80" fill="#ffffff" stroke="none" d="M 235.812408 768.526611 C 234.246063 761.86261 232.532562 753.485596 231.156342 744.293213 L 220.038956 745.200317 C 222.453613 756.168579 225.885971 763.705933 229.244965 769.062256 L 235.812408 768.526611 Z"/>
        <path id="path81" fill="#ffffff" stroke="none" d="M 297.219757 598.627075 L 297.219757 600.233887 L 297.219757 598.627075 Z"/>
        <path id="path82" fill="#ffffff" stroke="none" d="M 230.112106 651.214844 L 280.562744 647.103638 C 285.361694 637.438232 291.474548 629.611328 298.550598 624.259888 L 247.21788 628.448364 C 240.622421 635.213623 234.816925 642.857178 230.112106 651.214844 Z"/>
        <path id="path83" fill="#ffffff" stroke="none" d="M 393.306702 702.967896 C 388.558929 644.753601 346.226624 600.229065 297.210571 600.233887 C 295.223938 600.233887 293.216553 600.32074 291.205292 600.470337 C 277.376984 605.151001 264.118561 612.944153 252.727097 623.169312 L 308.699036 618.604431 C 311.756439 617.455933 314.927246 616.703247 318.212433 616.432983 C 349.37088 613.889893 378.046173 653.753052 382.263153 705.47229 C 386.481567 757.186768 364.64444 801.170837 333.48645 803.709045 C 324.940094 804.408691 316.581879 801.899475 308.865021 796.842346 L 283.391907 798.92218 C 291.921387 809.629822 301.460846 817.292664 311.603973 820.376099 C 361.796417 814.373291 398.166412 762.572021 393.306702 702.967896 Z"/>
        <path id="path84" fill="#eab96a" stroke="none" d="M 528.4552 330.24231 L 550.570313 271.207642 L 530.824524 282.913269 C 530.824524 282.913269 475.984161 285.787781 468.851654 287.452026 L 468.103241 287.701111 C 468.203094 287.62384 468.482025 287.538879 468.851654 287.452026 L 522.283447 269.652832 L 521.521057 260.277039 L 384.873718 271.422363 L 390.58902 341.486084 L 528.4552 330.24231 Z"/>
        <path id="path85" fill="#664c71" stroke="none" d="M 431.408997 330.591125 C 446.323029 329.36792 457.613647 316.900879 457.613647 302.192383 C 457.613647 301.415955 457.58371 300.633728 457.519531 299.845764 L 457.519531 299.843872 C 456.296295 284.933655 443.832611 273.643005 429.124634 273.643005 C 428.346283 273.643005 427.564056 273.674927 426.776062 273.739075 C 411.863953 274.957031 400.571381 287.426025 400.571381 302.134033 C 400.571381 302.912354 400.605194 303.69458 400.66745 304.484436 C 401.887329 319.3927 414.356293 330.685303 429.064331 330.687195 C 429.840698 330.685303 430.624817 330.654907 431.408997 330.591125 Z"/>
        <path id="path86" fill="#664c71" stroke="none" d="M 468.851654 287.452026 C 468.482025 287.538879 468.203094 287.62384 468.103241 287.701111 L 468.851654 287.452026 Z"/>
        <path id="path87" fill="#ffffff" stroke="none" d="M 429.124634 278.457397 C 428.479919 278.457397 427.827515 278.483459 427.167877 278.538452 C 414.774658 279.543152 405.387695 289.925049 405.387695 302.134033 C 405.387695 302.78064 405.411804 303.432556 405.466827 304.092712 C 406.473419 316.481995 416.855408 325.872803 429.064331 325.872803 C 429.710907 325.870911 430.362854 325.84491 431.019073 325.791748 C 443.412292 324.783691 452.801208 314.401245 452.799255 302.192383 C 452.799255 301.543823 452.773254 300.89386 452.722076 300.23761 C 451.710205 287.842468 441.335449 278.457397 429.124634 278.457397 Z"/>
        <path id="path88" fill="#eab96a" stroke="none" d="M 278.772034 514.678528 L 273.533508 515.981445 L 275.895569 544.958252 L 281.103699 543.283875 L 278.772034 514.678528 Z"/>
        <path id="path89" fill="#eab96a" stroke="none" d="M 342.694397 498.773804 L 343.210693 505.114502 L 416.058258 486.994873 L 415.539978 480.653259 L 342.694397 498.773804 Z"/>
        <path id="path90" fill="#eab96a" stroke="none" d="M 343.606384 509.978516 L 344.419037 519.914185 L 481.53009 491.057922 L 482.849792 485.942932 L 482.001007 475.552734 L 343.606384 509.978516 Z"/>
        <path id="path91" fill="#eab96a" stroke="none" d="M 286.477814 549.947876 L 336.402466 535.119141 L 283.499512 513.419067 L 286.477814 549.947876 Z"/>
        <path id="path92" fill="#eab96a" stroke="none" d="M 337.284546 491.680359 L 279.812408 468.225769 L 283.480713 513.197144 L 339.039093 513.197144 L 337.284546 491.680359 Z"/>
        <path id="path93" fill="#eab96a" stroke="none" d="M 266.957367 494.556396 L 209.483276 471.098389 L 213.083557 515.223816 L 268.644379 515.223816 L 266.957367 494.556396 Z"/>
        <path id="path94" fill="#eab96a" stroke="none" d="M 266.623444 537.584961 L 213.117325 515.638794 L 216.131302 552.58252 L 266.623444 537.584961 Z"/>
        <path id="path95" fill="#d0516d" stroke="none" d="M 389.04483 379.118835 C 382.291107 379.239563 373.86203 381.844788 369.217499 384.32312 C 361.705719 388.330688 356.486511 397.404968 349.496826 402.58844 C 344.047455 406.627869 338.404053 410.02063 332.34375 413.298523 C 325.403809 417.049866 312.063812 422.489624 304.714661 429.332092 C 307.440063 430.915344 311.464508 431.618408 315.920319 431.618408 C 324.87204 431.618408 335.491913 428.83075 340.481415 424.862732 C 347.044525 419.643555 348.937103 412.207031 357.12735 406.954102 C 364.410889 402.281128 372.4216 398.198242 379.501526 393.216492 C 383.512939 390.396484 390.963928 385.281006 395.851654 380.266846 C 394.047882 379.40741 391.67807 379.071594 389.04483 379.118835 Z"/>
        <path id="path96" fill="#d0516d" stroke="none" d="M 304.705017 429.341248 C 304.706909 429.337402 304.712708 429.33551 304.714661 429.332092 C 304.690033 429.31665 304.659637 429.307495 304.635529 429.292542 C 304.659637 429.307495 304.678467 429.326355 304.705017 429.341248 Z"/>
        <path id="path97" fill="#d0516d" stroke="none" d="M 595.210571 369.861694 L 595.191284 369.466003 C 595.196106 368.40686 595.736511 367.368408 596.363892 366.335266 C 594.481934 365.722412 592.184998 365.358643 590.6698 365.195007 C 582.924988 364.353943 574.041321 365.541443 567.372559 368.109131 C 564.578613 369.185181 563.237122 370.159912 560.172974 370.836487 C 556.713074 371.599792 552.833435 371.085449 549.942993 372.851563 C 549.064758 373.386658 548.456726 374.014465 548.041748 374.69104 C 547.699158 374.408264 553.388367 376.839783 558.850769 377.15686 C 565.587097 377.546753 572.241394 377.775024 578.905334 378.679749 C 581.607666 379.045532 585.130249 379.755798 588.392212 379.755798 C 590.983459 379.755798 593.405884 379.305664 595.109314 377.874878 C 598.043152 375.409546 595.451904 372.49884 595.210571 369.861694 Z"/>
        <path id="path98" fill="#ffffff" stroke="none" d="M 344.409363 291.457642 C 343.221802 291.382385 341.987488 291.327332 340.747314 291.278687 C 341.76889 290.008057 342.665924 288.760254 343.365143 287.619995 C 344.852325 285.325989 345.542358 283.49762 345.542358 283.49762 C 345.542358 283.49762 343.712097 284.187622 341.419983 285.672913 C 340.279755 286.374084 339.029938 287.27301 337.757446 288.294556 C 337.710632 287.05249 337.653717 285.816223 337.57843 284.626709 C 337.407135 281.771057 337.150421 279.105469 336.841614 276.822998 C 336.270233 272.255737 335.46344 269.2099 335.46344 269.2099 C 335.465363 269.2099 334.658539 272.255737 334.087708 276.822998 C 333.778381 279.105469 333.522156 281.771057 333.350342 284.626709 C 333.275085 285.812378 333.220581 287.046692 333.171356 288.2854 C 331.901276 287.263855 330.654846 286.36438 329.512665 285.667114 C 327.220581 284.181885 325.386902 283.495667 325.386902 283.495667 C 325.386902 283.495667 326.072601 285.327881 327.559814 287.621948 C 328.255646 288.762146 329.15271 290.008057 330.174255 291.27478 C 328.937958 291.322083 327.705078 291.374695 326.519409 291.451904 C 323.663727 291.621765 321.00058 291.877991 318.713776 292.189209 C 314.147003 292.761963 311.1026 293.572693 311.1026 293.572693 C 311.1026 293.572693 314.147003 294.381409 318.713776 294.954224 C 321.00058 295.265442 323.663727 295.523621 326.519409 295.691101 C 327.705078 295.768738 328.939911 295.82135 330.176178 295.868652 C 329.156555 297.137268 328.257568 298.384583 327.559814 299.52533 C 326.076477 301.819397 325.388336 303.651611 325.388336 303.651611 C 325.388336 303.651611 327.220581 302.965454 329.514618 301.480164 C 330.654846 300.780457 331.901276 299.885315 333.169403 298.865723 C 333.214783 300.10199 333.267883 301.332947 333.345062 302.516663 C 333.512512 305.372375 333.771149 308.035522 334.081879 310.320374 C 334.655182 314.889587 335.465363 317.933472 335.46344 317.933472 C 335.46344 317.933472 336.274109 314.889587 336.847382 310.320374 C 337.158112 308.035522 337.416321 305.372375 337.584229 302.516663 C 337.661438 301.329102 337.71405 300.094238 337.759399 298.856018 C 339.03186 299.875732 340.277802 300.775146 341.41803 301.474304 C 343.712097 302.959595 345.542358 303.649658 345.542358 303.649658 C 345.540436 303.649658 344.850403 301.821289 343.365143 299.527283 C 342.664001 298.386536 341.766937 297.137268 340.743469 295.864746 C 341.985535 295.817444 343.220367 295.762939 344.409363 295.687683 C 347.265045 295.515869 349.928711 295.257751 352.214996 294.948425 C 356.782318 294.377563 359.826721 293.57074 359.826721 293.57074 C 359.826721 293.572693 356.782318 292.767822 352.214996 292.196472 C 349.928711 291.887634 347.265045 291.628967 344.409363 291.457642 Z"/>
        <path id="path99" fill="#ffffff" stroke="none" d="M 654.134216 283.40155 C 655.32135 283.478821 656.551819 283.531372 657.791992 283.578674 C 656.768982 284.84729 655.876282 286.095154 655.176575 287.235413 C 653.690369 289.529419 653.005127 291.361694 653.005127 291.361694 C 653.005127 291.361694 654.838867 290.675476 657.13092 289.190247 C 658.269714 288.490967 659.514648 287.595337 660.783752 286.575745 C 660.83197 287.812012 660.880249 289.042969 660.96228 290.226685 C 661.126343 293.082397 661.386963 295.746033 661.69574 298.030396 C 662.269958 302.597717 663.080688 305.643555 663.080688 305.643555 C 663.080688 305.643555 663.891357 302.597717 664.465576 298.030396 C 664.774414 295.746033 665.034973 293.082397 665.199036 290.226685 C 665.276306 289.039124 665.329346 287.80481 665.377625 286.566101 C 666.646667 287.587646 667.896484 288.485168 669.035278 289.184387 C 671.327332 290.669678 673.15625 291.35968 673.15625 291.35968 C 673.15625 291.35968 672.466187 289.531311 670.979919 287.237305 C 670.280334 286.097107 669.38269 284.84729 668.35968 283.574829 C 669.599854 283.527466 670.835144 283.472961 672.022278 283.397705 C 674.878906 283.225891 677.547363 282.969666 679.829834 282.658875 C 684.394775 282.087585 687.439636 281.280762 687.439636 281.280762 C 687.439636 281.282715 684.394775 280.477844 679.829834 279.906982 C 677.547363 279.595764 674.878906 279.339539 672.022278 279.167725 C 670.835144 279.092468 669.599854 279.037964 668.35968 278.988708 C 669.387512 277.718079 670.280334 276.470276 670.984802 275.330017 C 672.471008 273.03595 673.15625 271.207642 673.15625 271.207642 C 673.15625 271.207642 671.327332 271.897705 669.035278 273.382935 C 667.896484 274.084106 666.646667 274.98114 665.372742 276.005066 C 665.329346 274.762573 665.271423 273.526306 665.194214 272.336792 C 665.02533 269.481079 664.769592 266.815979 664.455933 264.533081 C 663.886536 259.965759 663.080688 256.919922 663.080688 256.919922 C 663.080688 256.919922 662.274841 259.965759 661.705444 264.533081 C 661.391785 266.815979 661.135986 269.481079 660.967163 272.336792 C 660.889893 273.5224 660.836853 274.75531 660.788574 275.995422 C 659.519531 274.973938 658.269714 274.074951 657.13092 273.377197 C 654.838867 271.891907 653.005127 271.20575 653.005127 271.20575 C 653.005127 271.20575 653.690369 273.037964 655.176575 275.331909 C 655.871399 276.472229 656.768982 277.718079 657.78717 278.984802 C 656.551819 279.032104 655.32135 279.084717 654.134216 279.162415 C 651.277649 279.329834 648.613953 279.588013 646.331543 279.899231 C 641.76178 280.472046 638.716919 281.282715 638.716919 281.282715 C 638.716919 281.282715 641.76178 282.091492 646.331543 282.664246 C 648.613953 282.975464 651.277649 283.235596 654.134216 283.40155 Z"/>
        <path id="path100" fill="#ffffff" stroke="none" d="M 607.153564 258.097839 C 614.912964 258.097839 614.912964 246.06073 607.153564 246.06073 C 599.389465 246.06073 599.389465 258.097839 607.153564 258.097839 Z"/>
        <path id="path101" fill="#ffffff" stroke="none" d="M 719.697754 336.540039 C 727.461914 336.540039 727.461914 324.50238 719.697754 324.50238 C 711.938416 324.50238 711.938416 336.540039 719.697754 336.540039 Z"/>
        <path id="path102" fill="#ffffff" stroke="none" d="M 381.936951 238.437988 C 381.936951 235.17688 379.199921 232.393066 375.920074 232.419128 C 372.024017 232.449585 369.249359 235.226135 369.218964 239.1203 C 369.192902 242.400146 371.976715 245.139038 375.237762 245.139038 C 377.062256 245.139038 378.679779 244.284973 379.784332 242.984497 C 381.0867 241.878052 381.936951 240.260498 381.936951 238.437988 Z"/>
        <path id="path103" fill="#ffffff" stroke="none" d="M 286.564178 345.648071 C 283.282898 345.648071 280.545868 348.38501 280.545868 351.666382 L 280.545868 352.349121 C 280.545868 355.62854 283.282898 358.367432 286.564178 358.367432 C 289.844025 358.367432 292.582947 355.62854 292.582947 352.349121 L 292.582947 351.666382 C 292.582947 348.38501 289.844025 345.648071 286.564178 345.648071 Z"/>
        <path id="path104" fill="#ffffff" stroke="none" d="M 492.558655 239.681946 C 500.322784 239.681946 500.322784 227.644836 492.558655 227.644836 C 484.794434 227.644836 484.794434 239.681946 492.558655 239.681946 Z"/>
        <path id="path105" fill="#ffffff" stroke="none" d="M 333.889862 663.852783 C 331.985718 665.758789 330.180023 668.610596 328.668213 672.215332 C 325.633484 679.429321 323.784393 689.611023 323.790192 701.071533 C 323.790192 704.039185 323.91275 707.093628 324.167023 710.210938 C 324.977722 720.170654 327.028564 729.329468 329.846619 736.804077 C 332.651154 744.28833 336.268311 750.078857 339.93277 753.302246 C 342.383148 755.46405 344.733643 756.45813 346.929688 756.453247 L 347.525146 756.429138 C 349.517578 756.260254 351.440521 755.30481 353.357178 753.393982 C 355.261353 751.487915 357.067047 748.636108 358.578827 745.031372 C 361.613586 737.8125 363.460754 727.625977 363.454956 716.165527 C 363.454956 713.197876 363.33432 710.148193 363.080017 707.035767 C 362.267426 697.075989 360.216583 687.922119 357.398529 680.437866 C 354.593994 672.958374 350.976776 667.167847 347.314301 663.944458 C 344.863922 661.782593 342.513428 660.788574 340.321259 660.793457 L 339.72525 660.817505 C 337.73288 660.981628 335.808441 661.941895 333.889862 663.852783 Z"/>
        <path id="path106" fill="#664c71" stroke="none" d="M 424.825134 284.649414 C 415.023193 285.450439 407.726593 294.04364 408.525696 303.839783 C 409.327179 313.641785 417.92038 320.938293 427.718506 320.137329 C 437.518494 319.337708 444.815094 310.748413 444.01358 300.946472 C 443.214447 291.148376 434.62323 283.849854 424.825134 284.649414 Z"/>
    </g>
</svg>
